<svg xmlns="http://www.w3.org/2000/svg" viewBox="0 0 256 256" role="img" aria-labelledby="title desc">
  <title id="title">Overleaf LeafLink Sync</title>
  <desc id="desc">A document outline with a leaf, chain link, and sync arrows.</desc>
  <rect width="256" height="256" rx="48" fill="#f7fbf8"/>
  <path d="M70 32h82l42 42v150H70z" fill="#ffffff" stroke="#26383b" stroke-width="12" stroke-linejoin="round"/>
  <path d="M152 32v48h48" fill="#b7efd0" stroke="#26383b" stroke-width="12" stroke-linejoin="round"/>
  <path d="M55 145c6-58 49-90 129-98-8 76-43 119-103 130 21-34 52-57 94-79-48 12-84 37-120 47z" fill="#1f9d55"/>
  <path d="M56 145c37-10 72-35 120-47-42 22-73 45-94 79" fill="none" stroke="#ffffff" stroke-width="10" stroke-linecap="round"/>
  <path d="M95 170l-19 19a22 22 0 0 0 31 31l22-22" fill="none" stroke="#26383b" stroke-width="13" stroke-linecap="round"/>
  <path d="M124 176l20-20a22 22 0 0 1 31 31l-22 22" fill="none" stroke="#1f9d55" stroke-width="13" stroke-linecap="round"/>
  <path d="M182 160a34 34 0 0 1 47 3" fill="none" stroke="#2f80ed" stroke-width="11" stroke-linecap="round"/>
  <path d="M226 151l8 22-23 4" fill="none" stroke="#2f80ed" stroke-width="11" stroke-linecap="round" stroke-linejoin="round"/>
  <path d="M231 198a34 34 0 0 1-47-3" fill="none" stroke="#2f80ed" stroke-width="11" stroke-linecap="round"/>
  <path d="M187 207l-8-22 23-4" fill="none" stroke="#2f80ed" stroke-width="11" stroke-linecap="round" stroke-linejoin="round"/>
</svg>
